<svg xmlns="http://www.w3.org/2000/svg" width="16" height="16" viewBox="0 0 16 16"><defs><style>.a{fill:#fff;}</style></defs><path class="a" d="M14.125,1.25h-.75V0h-1.25V1.25H3.875V0H2.625V1.25h-.75A1.877,1.877,0,0,0,0,3.125v11A1.877,1.877,0,0,0,1.875,16h12.25A1.877,1.877,0,0,0,16,14.125v-11A1.877,1.877,0,0,0,14.125,1.25Zm.625,12.875a.626.626,0,0,1-.625.625H1.875a.626.626,0,0,1-.625-.625V5.875h13.5Zm0-9.5H1.25v-1.5A.626.626,0,0,1,1.875,2.5h.75V3.75h1.25V2.5h8.25V3.75h1.25V2.5h.75a.626.626,0,0,1,.625.625Z"/><g transform="translate(2.227 7.226)"><rect class="a" width="1.172" height="1.172"/></g><g transform="translate(4.901 7.226)"><rect class="a" width="1.172" height="1.172"/></g><g transform="translate(7.414 7.226)"><rect class="a" width="1.172" height="1.172"/></g><g transform="translate(9.927 7.226)"><rect class="a" width="1.172" height="1.172"/></g><g transform="translate(12.602 7.226)"><rect class="a" width="1.172" height="1.172"/></g><g transform="translate(2.227 9.739)"><rect class="a" width="1.172" height="1.172"/></g><g transform="translate(4.901 9.739)"><rect class="a" width="1.172" height="1.172"/></g><g transform="translate(7.414 9.739)"><rect class="a" width="1.172" height="1.172"/></g><g transform="translate(9.927 9.739)"><rect class="a" width="1.172" height="1.172"/></g><g transform="translate(2.227 12.252)"><rect class="a" width="1.172" height="1.172"/></g><g transform="translate(4.901 12.252)"><rect class="a" width="1.172" height="1.172"/></g><g transform="translate(7.414 12.252)"><rect class="a" width="1.172" height="1.172"/></g><g transform="translate(9.927 12.252)"><rect class="a" width="1.172" height="1.172"/></g><g transform="translate(12.602 9.739)"><rect class="a" width="1.172" height="1.172"/></g></svg>