<svg xmlns="http://www.w3.org/2000/svg" xmlns:xlink="http://www.w3.org/1999/xlink" width="13.625" height="16" viewBox="0 0 13.625 16"><defs><style>.a{fill:url(#a);}</style><linearGradient id="a" x1="0.158" y1="0.174" x2="0.831" y2="0.816" gradientUnits="objectBoundingBox"><stop offset="0" stop-color="#96ffff"/><stop offset="1" stop-color="#45ddc0"/></linearGradient></defs><path class="a" d="M13.609,4.34V4.328c-.007-.154-.012-.316-.014-.5A1.7,1.7,0,0,0,12,2.169,6.58,6.58,0,0,1,7.519.282l-.01-.01a1.024,1.024,0,0,0-1.392,0l-.01.01A6.581,6.581,0,0,1,1.628,2.169a1.7,1.7,0,0,0-1.6,1.661c0,.18-.007.342-.014.5v.029a17.34,17.34,0,0,0,.7,6.329A8.057,8.057,0,0,0,2.65,13.7a10.112,10.112,0,0,0,3.783,2.237,1.172,1.172,0,0,0,.155.042,1.145,1.145,0,0,0,.45,0,1.175,1.175,0,0,0,.156-.042A10.118,10.118,0,0,0,10.972,13.7a8.069,8.069,0,0,0,1.933-3.012A17.366,17.366,0,0,0,13.609,4.34Z" transform="translate(0 0.001)"/></svg>