<svg xmlns="http://www.w3.org/2000/svg" xmlns:xlink="http://www.w3.org/1999/xlink" width="13.332" height="16" viewBox="0 0 13.332 16"><defs><style>.a{fill:url(#a);}</style><linearGradient id="a" x1="0.781" y1="0.939" x2="0.218" y2="0.112" gradientUnits="objectBoundingBox"><stop offset="0" stop-color="#ed118b"/><stop offset="1" stop-color="#ffb3d7"/></linearGradient></defs><path class="a" d="M19170,22216a2,2,0,0,1-2-2v-.668a6.675,6.675,0,0,1,3.342-5.775,3.968,3.968,0,0,1-.678-2.225V22204a4,4,0,0,1,8,0v1.332a3.966,3.966,0,0,1-.676,2.225,6.67,6.67,0,0,1,3.344,5.775v.668a2,2,0,0,1-2,2Z" transform="translate(-19168 -22199.998)"/></svg>