<svg xmlns="http://www.w3.org/2000/svg" xmlns:xlink="http://www.w3.org/1999/xlink" width="16" height="12.513" viewBox="0 0 16 12.513"><defs><style>.a{fill:url(#a);}</style><linearGradient id="a" x1="0.203" y1="0.106" x2="0.798" y2="0.927" gradientUnits="objectBoundingBox"><stop offset="0" stop-color="#bd9adc"/><stop offset="1" stop-color="#3e81f1"/></linearGradient></defs><path class="a" d="M4.316,65.217a1.229,1.229,0,0,0,1.738,0L12,59.267a1.742,1.742,0,0,0,.388-.591,6.256,6.256,0,0,0,1.692.253c1.268-.007,1.689-.562,1.827-.894s.237-1.019-.654-1.925l-.03-.03a7.113,7.113,0,0,0-2.264-1.439c-.168-.069-.335-.131-.5-.191v-.01a1.345,1.345,0,0,0-1.327-1.327l-3.565-.049a1.734,1.734,0,0,0-1.258.513L.36,59.527a1.229,1.229,0,0,0,0,1.738ZM8.9,55.193a1.016,1.016,0,0,1,1.725.867,7.092,7.092,0,0,0,1.357.739c.177.072.348.138.513.194l-.02-1.432.085.036a6.193,6.193,0,0,1,1.929,1.216l.02.02c.427.437.473.716.437.8-.112.266-1.311.5-3.131-.256a7.027,7.027,0,0,1-1.436-.8c-.013.016-.03.033-.043.049A1.015,1.015,0,1,1,8.9,55.193Z" transform="translate(0 -53.064)"/></svg>