<svg xmlns="http://www.w3.org/2000/svg" width="12" height="16" viewBox="0 0 12 16"><defs><style>.a{fill:#fff;}</style></defs><path class="a" d="M24075.443,22215.965l-2.641-1.176-2.641,1.176a.424.424,0,0,1-.324,0l-2.641-1.176-2.643,1.176a.4.4,0,0,1-.518-.531l2.109-4.457a.388.388,0,0,1,.2-.2l1.057-.469-1.816-3.047a.146.146,0,0,1-.014-.023,5.022,5.022,0,0,1-.545-2.3,4.976,4.976,0,1,1,9.408,2.3l-.012.023-1.82,3.047,1.051.465a.411.411,0,0,1,.2.2l2.109,4.457a.4.4,0,0,1-.076.445.389.389,0,0,1-.443.086Zm-8.086-1.969,2.643,1.176,2.643-1.176a.382.382,0,0,1,.32,0l1.83.813-1.59-3.363-1.01-.449-1.176,1.973a1.185,1.185,0,0,1-2.035,0l-1.176-1.973-1.008.449-1.592,3.363,1.83-.812a.376.376,0,0,1,.16-.035A.382.382,0,0,1,24067.357,22214Zm2.584-13.207a4.212,4.212,0,0,0-4.131,4.16,4.156,4.156,0,0,0,.453,1.922l3.4,5.691a.394.394,0,0,0,.676,0l3.4-5.691a4.191,4.191,0,0,0-3.738-6.082Zm-1.744,4.188a1.8,1.8,0,1,1,1.8,1.8A1.8,1.8,0,0,1,24068.2,22204.977Zm.789,0a1.013,1.013,0,1,0,1.014-1.012A1.014,1.014,0,0,0,24068.986,22204.977Z" transform="translate(-24064 -22199.998)"/></svg>