<svg xmlns="http://www.w3.org/2000/svg" width="12" height="16" viewBox="0 0 12 16"><defs><style>.a{fill:#07c4ae;}</style></defs><path class="a" d="M11.446,15.966,8.8,14.789l-2.64,1.177a.416.416,0,0,1-.324,0L3.2,14.789.556,15.966a.4.4,0,0,1-.518-.531l2.109-4.458a.4.4,0,0,1,.2-.194L3.4,10.314,1.583,7.266,1.57,7.243a5.011,5.011,0,0,1-.545-2.3A4.977,4.977,0,0,1,9.5,1.433a4.987,4.987,0,0,1,.937,5.81.226.226,0,0,1-.013.023L8.6,10.314l1.05.467a.4.4,0,0,1,.2.2l2.109,4.458a.4.4,0,0,1-.358.565A.43.43,0,0,1,11.446,15.966ZM3.36,13.995,6,15.172l2.642-1.177a.389.389,0,0,1,.32,0l1.83.815L9.2,11.445,8.194,11,7.018,12.97a1.185,1.185,0,0,1-2.035,0L3.807,11,2.8,11.445,1.208,14.809l1.83-.815a.386.386,0,0,1,.16-.033A.4.4,0,0,1,3.36,13.995ZM5.942.79A4.212,4.212,0,0,0,1.813,4.952a4.156,4.156,0,0,0,.452,1.921l3.4,5.693A.389.389,0,0,0,6,12.758a.384.384,0,0,0,.337-.192l3.4-5.693A4.19,4.19,0,0,0,6,.79ZM4.2,4.977A1.8,1.8,0,1,1,6,6.779,1.8,1.8,0,0,1,4.2,4.977Zm.788,0A1.013,1.013,0,1,0,6,3.964,1.015,1.015,0,0,0,4.988,4.977Z"/></svg>