<svg xmlns="http://www.w3.org/2000/svg" xmlns:xlink="http://www.w3.org/1999/xlink" width="131" height="32" viewBox="0 0 131 32"><defs><style>.a{fill:url(#a);}.b{fill:url(#b);}.c{fill:url(#c);}.d{fill:url(#d);}.e{fill:url(#e);}.f{fill:url(#f);}.g{fill:#fafafa;}</style><linearGradient id="a" x1="0.457" y1="0.948" x2="0.577" y2="0.236" gradientUnits="objectBoundingBox"><stop offset="0" stop-color="#ed118b"/><stop offset="1" stop-color="#ffb3d7"/></linearGradient><linearGradient id="b" x1="0.229" y1="0.29" x2="0.834" y2="0.701" gradientUnits="objectBoundingBox"><stop offset="0" stop-color="#96ffff"/><stop offset="1" stop-color="#45ddc0"/></linearGradient><linearGradient id="c" y1="0.5" x2="1" y2="0.5" gradientUnits="objectBoundingBox"><stop offset="0" stop-color="#45ddc0"/><stop offset="1" stop-color="#ed118b"/></linearGradient><linearGradient id="d" x1="0.29" y1="0.759" x2="0.632" y2="0.012" gradientUnits="objectBoundingBox"><stop offset="0" stop-color="#bd9adc"/><stop offset="1" stop-color="#3e81f1"/></linearGradient><linearGradient id="e" x1="0.159" y1="0.327" x2="0.726" y2="0.655" gradientUnits="objectBoundingBox"><stop offset="0" stop-color="#45ddc0"/><stop offset="1" stop-color="#96ffff"/></linearGradient><linearGradient id="f" y1="0.5" x2="1" y2="0.5" gradientUnits="objectBoundingBox"><stop offset="0" stop-color="#3e81f1"/><stop offset="1" stop-color="#45ddc0"/></linearGradient></defs><g transform="translate(-0.01 -0.018)"><path class="a" d="M97.923,492.256a30.453,30.453,0,0,1-3.433,4.13,31.16,31.16,0,0,0,3.431-4.13,75.607,75.607,0,0,0,5.762-9.859.7.7,0,0,1,1.141-.174l1.209,1.284a1.711,1.711,0,0,1,.447,1.472,2.5,2.5,0,0,0,.874,2.3,3.146,3.146,0,0,0,2.269,1.047,1.767,1.767,0,0,1,1.456.54l1.469,1.557a1.2,1.2,0,0,1,.118,1.5c-4.21,6.213-6.318,7.07-6.9,7.183C104.308,499.325,97.923,492.256,97.923,492.256Z" transform="translate(-82.622 -467.095)"/><path class="b" d="M19.562,519.45l-.354.215a.427.427,0,0,1-.592-.145h0a.425.425,0,0,1,.145-.586l.146-.088a.427.427,0,0,0,.112-.633q-.405-.5-.848-1.056l-.454-.578a1.2,1.2,0,0,0-1.548-.32l-1.334.775a1.692,1.692,0,0,0-.841,1.33,2.526,2.526,0,0,1-1.452,2.026,2.537,2.537,0,0,1-2.412.216,1.922,1.922,0,0,0-1.744.055l-1.114.706a1.14,1.14,0,0,0-.435,1.555c.5.886.467.743.467.743.3.405.61.81.937,1.2a.425.425,0,0,0,.55.092l.355-.213a.428.428,0,0,1,.586.145h0a.425.425,0,0,1-.145.586l-.076.046a.428.428,0,0,0-.08.669,8.127,8.127,0,0,0,3.683,2.391,3.866,3.866,0,0,0,.847,0c2.659-.3,5.544-3.352,8.019-6.834,0,0-.72-.818-1.869-2.207A.428.428,0,0,0,19.562,519.45Zm-7.806,4.219h0a.428.428,0,0,1,.145-.586l.66-.405a.427.427,0,0,1,.586.144h0a.427.427,0,0,1-.143.586l-.66.405a.427.427,0,0,1-.588-.145Zm3.413-2.065h0a.427.427,0,0,1,.143-.586l.7-.421a.427.427,0,0,1,.582.145h0a.427.427,0,0,1-.135.587l-.7.42a.427.427,0,0,1-.59-.145Z" transform="translate(-6.68 -496.589)"/><path class="c" d="M60.55,564.754a5.224,5.224,0,0,0,1.769-.567c.17-.086.339-.182.511-.286a13.05,13.05,0,0,0,2.3-1.85,31,31,0,0,0,3.433-4.13s6.384,7.069,7.84,6.839a.668.668,0,0,1-.169.016l-9.3-.013Z" transform="translate(-53.266 -532.758)"/><path class="d" d="M23.9,375.734a30.992,30.992,0,0,1,3.432-4.129,31.151,31.151,0,0,0-3.429,4.13,75.567,75.567,0,0,0-5.763,9.859.7.7,0,0,1-1.141.174l-1.216-1.284a1.706,1.706,0,0,1-.446-1.472,2.5,2.5,0,0,0-.875-2.3,3.144,3.144,0,0,0-2.269-1.047,1.767,1.767,0,0,1-1.455-.54l-1.463-1.556a1.2,1.2,0,0,1-.119-1.5c4.21-6.213,6.318-7.07,6.9-7.182C17.512,368.665,23.9,375.734,23.9,375.734Z" transform="translate(-8.632 -368.862)"/><path class="e" d="M122.088,377.974l.355-.216a.428.428,0,0,1,.586.144h0a.427.427,0,0,1-.143.586l-.147.088a.427.427,0,0,0-.112.633q.405.5.848,1.056l.455.578a1.2,1.2,0,0,0,1.548.32l1.334-.783a1.686,1.686,0,0,0,.841-1.329,2.948,2.948,0,0,1,3.864-2.242,1.925,1.925,0,0,0,1.745-.055l1.118-.7a1.141,1.141,0,0,0,.43-1.555c-.505-.886-.469-.743-.469-.743-.3-.405-.61-.81-.936-1.2a.428.428,0,0,0-.551-.092l-.355.213a.427.427,0,0,1-.585-.145h0a.428.428,0,0,1,.145-.588l.076-.045a.428.428,0,0,0,.084-.667,8.127,8.127,0,0,0-3.684-2.391,3.7,3.7,0,0,0-.847,0c-2.659.3-5.544,3.351-8.017,6.834,0,0,.72.819,1.868,2.207A.428.428,0,0,0,122.088,377.974Zm7.8-4.219h0a.428.428,0,0,1-.145.588l-.66.405a.428.428,0,0,1-.586-.145h0a.427.427,0,0,1,.143-.586l.66-.405A.428.428,0,0,1,129.891,373.755Zm-3.413,2.065h0a.427.427,0,0,1-.146.587l-.7.421a.427.427,0,0,1-.586-.145h0a.427.427,0,0,1,.145-.587l.7-.42A.428.428,0,0,1,126.478,375.82Z" transform="translate(-104.401 -368.802)"/><path class="f" d="M77.439,368.842a5.183,5.183,0,0,0-1.769.567c-.172.086-.34.182-.511.286a13.052,13.052,0,0,0-2.305,1.848,31,31,0,0,0-3.432,4.13s-6.386-7.069-7.842-6.839a.668.668,0,0,1,.169-.016l9.3.013Z" transform="translate(-54.157 -368.8)"/><path class="g" d="M324.894,445.879a3.377,3.377,0,0,1-.454-1.673,1.808,1.808,0,0,1,.419-1.338,1.486,1.486,0,0,1,1.08-.405h10.423a3.038,3.038,0,0,1,.311.717,3.146,3.146,0,0,1,.145.956,1.807,1.807,0,0,1-.419,1.338,1.494,1.494,0,0,1-1.08.405h-2.654v11.044a6.62,6.62,0,0,1-.825.145,8.865,8.865,0,0,1-1.112.072,5.01,5.01,0,0,1-.968-.084,1.709,1.709,0,0,1-.705-.3,1.289,1.289,0,0,1-.431-.6,2.943,2.943,0,0,1-.142-1v-9.276Z" transform="translate(-282.317 -432.72)"/><path class="g" d="M427.276,426.495a2.027,2.027,0,0,1,.611-1.5,2.444,2.444,0,0,1,3.227,0,2.137,2.137,0,0,1,0,2.989,2.443,2.443,0,0,1-3.227,0A2.027,2.027,0,0,1,427.276,426.495Zm4.256,14.48-.777.132a6.676,6.676,0,0,1-1.041.082,5.821,5.821,0,0,1-.945-.07,1.632,1.632,0,0,1-.705-.281,1.345,1.345,0,0,1-.442-.571,2.42,2.42,0,0,1-.155-.946v-9.5l.777-.132a6.5,6.5,0,0,1,1.04-.082,5.677,5.677,0,0,1,.945.07,1.63,1.63,0,0,1,.706.28,1.359,1.359,0,0,1,.442.573,2.446,2.446,0,0,1,.155.946Z" transform="translate(-371.458 -416.867)"/><path class="g" d="M481.223,464.781a3.378,3.378,0,0,0-1.136.192,2.649,2.649,0,0,0-.932.562,2.723,2.723,0,0,0-.633.92,3.22,3.22,0,0,0-.239,1.291,2.788,2.788,0,0,0,.848,2.223,3.032,3.032,0,0,0,2.068.741,4.093,4.093,0,0,0,1.243-.167,7.617,7.617,0,0,0,.933-.358,2.473,2.473,0,0,1,.717.729,1.782,1.782,0,0,1,.239.945,1.671,1.671,0,0,1-.932,1.517,5.229,5.229,0,0,1-2.582.54,7.931,7.931,0,0,1-2.725-.443A6.137,6.137,0,0,1,476,472.231a5.5,5.5,0,0,1-1.351-1.925,6.282,6.282,0,0,1-.478-2.486,6.876,6.876,0,0,1,.516-2.763,5.33,5.33,0,0,1,1.4-1.949,5.943,5.943,0,0,1,2.045-1.147,7.76,7.76,0,0,1,2.45-.382,4.774,4.774,0,0,1,2.654.621,1.858,1.858,0,0,1,.932,1.6,1.748,1.748,0,0,1-.215.848,2.907,2.907,0,0,1-.5.675,7.928,7.928,0,0,0-.981-.37,4.167,4.167,0,0,0-1.244-.174Z" transform="translate(-412.18 -449.281)"/><path class="g" d="M576.1,446.922a2.968,2.968,0,0,1-.658,1.721,2.011,2.011,0,0,1-1.565.6,2.542,2.542,0,0,1-1.36-.37,5.322,5.322,0,0,1-1.29-1.256l-2.37-2.965V449l-.777.135a6.515,6.515,0,0,1-1.04.084,5.669,5.669,0,0,1-.945-.072,1.6,1.6,0,0,1-.705-.288,1.375,1.375,0,0,1-.443-.585,2.529,2.529,0,0,1-.155-.968V433.459c.176-.049.434-.1.777-.157a6.508,6.508,0,0,1,1.04-.084,5.542,5.542,0,0,1,.945.073,1.611,1.611,0,0,1,.705.286,1.388,1.388,0,0,1,.442.586,2.531,2.531,0,0,1,.155.968v6.31l4.113-4.2a3.315,3.315,0,0,1,2,.55,1.653,1.653,0,0,1,.752,1.387,1.789,1.789,0,0,1-.119.658,2.408,2.408,0,0,1-.371.609,5.5,5.5,0,0,1-.646.658c-.262.231-.57.5-.92.8l-1.387,1.2Z" transform="translate(-490.798 -424.713)"/><path class="g" d="M675.191,443a2.88,2.88,0,0,1,.3.7,3.22,3.22,0,0,1,.135.921,1.833,1.833,0,0,1-.394,1.326,1.438,1.438,0,0,1-1.064.394h-5.024v2.7h5.236a2.337,2.337,0,0,1,.321.693,3.1,3.1,0,0,1,.135.909,1.792,1.792,0,0,1-.394,1.3,1.44,1.44,0,0,1-1.064.394h-4.182v5.043a6.614,6.614,0,0,1-.825.145,8.892,8.892,0,0,1-1.112.072,5.022,5.022,0,0,1-.968-.084,1.708,1.708,0,0,1-.705-.3,1.28,1.28,0,0,1-.431-.6,2.938,2.938,0,0,1-.143-1v-10.4A2.064,2.064,0,0,1,667.23,443Z" transform="translate(-577.725 -433.187)"/><path class="g" d="M754.546,426.495a2.027,2.027,0,0,1,.61-1.5,2.185,2.185,0,0,1,1.613-.608,2.216,2.216,0,0,1,1.621.608,2.134,2.134,0,0,1,0,2.989,2.2,2.2,0,0,1-1.621.608,2.172,2.172,0,0,1-1.613-.608A2.027,2.027,0,0,1,754.546,426.495Zm4.256,14.48-.777.132a6.664,6.664,0,0,1-1.04.082,5.805,5.805,0,0,1-.945-.07,1.632,1.632,0,0,1-.706-.281,1.356,1.356,0,0,1-.442-.571,2.421,2.421,0,0,1-.155-.946v-9.5l.777-.132a6.505,6.505,0,0,1,1.04-.082,5.654,5.654,0,0,1,.945.07,1.629,1.629,0,0,1,.706.28,1.358,1.358,0,0,1,.442.573,2.445,2.445,0,0,1,.155.946Z" transform="translate(-655.303 -416.867)"/><path class="g" d="M812.521,466.181a1.321,1.321,0,0,0-.419-1.089,1.724,1.724,0,0,0-1.134-.346,3.782,3.782,0,0,0-.946.119,2.4,2.4,0,0,0-.8.359v8.3a5.7,5.7,0,0,1-.752.143,7.773,7.773,0,0,1-1.063.072,5.694,5.694,0,0,1-.945-.072,1.611,1.611,0,0,1-.7-.289,1.372,1.372,0,0,1-.442-.585,2.526,2.526,0,0,1-.157-.968v-7.172a1.85,1.85,0,0,1,.27-1.052,2.892,2.892,0,0,1,.754-.74,6.812,6.812,0,0,1,2.043-.933,9.775,9.775,0,0,1,2.738-.358,6.452,6.452,0,0,1,4.16,1.183,3.992,3.992,0,0,1,1.457,3.286v7.484a5.8,5.8,0,0,1-.752.143,7.783,7.783,0,0,1-1.064.072,5.676,5.676,0,0,1-.945-.072,1.6,1.6,0,0,1-.7-.288,1.376,1.376,0,0,1-.443-.585,2.53,2.53,0,0,1-.155-.968Z" transform="translate(-699.565 -449.266)"/><path class="g" d="M904.639,443.216a7.146,7.146,0,0,1,.478-2.734,5.223,5.223,0,0,1,1.325-1.927,5.45,5.45,0,0,1,1.984-1.136,7.849,7.849,0,0,1,2.45-.37,5.066,5.066,0,0,1,.933.084,3.674,3.674,0,0,1,.74.2v-3.876a6.514,6.514,0,0,1,.766-.157,6.879,6.879,0,0,1,1.081-.084,5.553,5.553,0,0,1,.945.073,1.611,1.611,0,0,1,.705.286,1.3,1.3,0,0,1,.431.586,2.758,2.758,0,0,1,.142.968v11.332a2.041,2.041,0,0,1-1.051,1.792,7.3,7.3,0,0,1-1.794.8,9.343,9.343,0,0,1-5.319-.084,5.636,5.636,0,0,1-2.08-1.244,5.318,5.318,0,0,1-1.291-1.948A7.044,7.044,0,0,1,904.639,443.216Zm6.789-2.987a2.588,2.588,0,0,0-1.984.74,3.183,3.183,0,0,0-.694,2.247,3.346,3.346,0,0,0,.646,2.235,2.338,2.338,0,0,0,1.865.754,2.171,2.171,0,0,0,.777-.135,1.726,1.726,0,0,0,.54-.3v-5.257A2.182,2.182,0,0,0,911.428,440.228Z" transform="translate(-785.61 -424.715)"/></g></svg>