<svg xmlns="http://www.w3.org/2000/svg" xmlns:xlink="http://www.w3.org/1999/xlink" width="132" height="32" viewBox="0 0 132 32"><defs><style>.a{fill:url(#a);}.b{fill:url(#b);}.c{fill:url(#c);}.d{fill:url(#d);}.e{fill:url(#e);}.f{fill:url(#f);}.g{fill:#36373d;}</style><linearGradient id="a" x1="0.457" y1="0.948" x2="0.577" y2="0.236" gradientUnits="objectBoundingBox"><stop offset="0" stop-color="#ed118b"/><stop offset="1" stop-color="#ffb3d7"/></linearGradient><linearGradient id="b" x1="0.229" y1="0.29" x2="0.834" y2="0.701" gradientUnits="objectBoundingBox"><stop offset="0" stop-color="#96ffff"/><stop offset="1" stop-color="#45ddc0"/></linearGradient><linearGradient id="c" y1="0.5" x2="1" y2="0.5" gradientUnits="objectBoundingBox"><stop offset="0" stop-color="#45ddc0"/><stop offset="1" stop-color="#ed118b"/></linearGradient><linearGradient id="d" x1="0.29" y1="0.759" x2="0.632" y2="0.012" gradientUnits="objectBoundingBox"><stop offset="0" stop-color="#bd9adc"/><stop offset="1" stop-color="#3e81f1"/></linearGradient><linearGradient id="e" x1="0.159" y1="0.327" x2="0.726" y2="0.655" gradientUnits="objectBoundingBox"><stop offset="0" stop-color="#45ddc0"/><stop offset="1" stop-color="#96ffff"/></linearGradient><linearGradient id="f" y1="0.5" x2="1" y2="0.5" gradientUnits="objectBoundingBox"><stop offset="0" stop-color="#3e81f1"/><stop offset="1" stop-color="#45ddc0"/></linearGradient></defs><g transform="translate(-0.01 -0.018)"><path class="a" d="M97.893,492.165a30.184,30.184,0,0,1-3.4,4.093,30.881,30.881,0,0,0,3.4-4.093,74.942,74.942,0,0,0,5.71-9.771.7.7,0,0,1,1.131-.173l1.2,1.273a1.7,1.7,0,0,1,.443,1.459,2.481,2.481,0,0,0,.866,2.276,3.118,3.118,0,0,0,2.249,1.037,1.751,1.751,0,0,1,1.443.535l1.456,1.543a1.191,1.191,0,0,1,.116,1.483c-4.172,6.157-6.262,7.007-6.84,7.119C104.22,499.171,97.893,492.165,97.893,492.165Z" transform="translate(-82.728 -466.942)"/><path class="b" d="M19.448,519.42l-.351.213a.423.423,0,0,1-.586-.143h0a.422.422,0,0,1,.143-.581l.145-.087a.423.423,0,0,0,.111-.628q-.4-.5-.841-1.047l-.45-.573a1.187,1.187,0,0,0-1.534-.317l-1.323.768a1.677,1.677,0,0,0-.834,1.318,2.5,2.5,0,0,1-1.439,2.008,2.514,2.514,0,0,1-2.391.214,1.9,1.9,0,0,0-1.728.055l-1.1.7a1.13,1.13,0,0,0-.431,1.541c.5.878.463.736.463.736.294.4.605.8.929,1.191a.422.422,0,0,0,.545.091l.352-.211a.424.424,0,0,1,.581.143h0a.422.422,0,0,1-.143.581l-.075.046a.424.424,0,0,0-.079.663,8.055,8.055,0,0,0,3.65,2.369,3.828,3.828,0,0,0,.839,0c2.636-.3,5.495-3.322,7.947-6.773,0,0-.713-.811-1.853-2.187A.424.424,0,0,0,19.448,519.42ZM11.711,523.6h0a.424.424,0,0,1,.143-.581l.655-.4a.423.423,0,0,1,.581.143h0a.423.423,0,0,1-.142.581l-.655.4a.423.423,0,0,1-.582-.143Zm3.383-2.047h0a.423.423,0,0,1,.142-.581l.691-.418a.423.423,0,0,1,.577.143h0a.423.423,0,0,1-.134.582l-.691.416a.423.423,0,0,1-.585-.143Z" transform="translate(-6.68 -496.477)"/><path class="c" d="M60.55,564.693a5.177,5.177,0,0,0,1.754-.562c.169-.086.336-.181.506-.284a12.936,12.936,0,0,0,2.284-1.834,30.725,30.725,0,0,0,3.4-4.093s6.327,7.006,7.77,6.779a.662.662,0,0,1-.167.016l-9.216-.013Z" transform="translate(-53.331 -532.697)"/><path class="d" d="M23.764,375.673a30.714,30.714,0,0,1,3.4-4.092,30.872,30.872,0,0,0-3.4,4.093,74.894,74.894,0,0,0-5.712,9.772.7.7,0,0,1-1.131.173l-1.2-1.273a1.691,1.691,0,0,1-.442-1.459,2.479,2.479,0,0,0-.867-2.276,3.116,3.116,0,0,0-2.249-1.037,1.751,1.751,0,0,1-1.442-.535L9.27,377.5a1.19,1.19,0,0,1-.118-1.483c4.172-6.157,6.262-7.007,6.84-7.118C17.435,368.667,23.764,375.673,23.764,375.673Z" transform="translate(-8.635 -368.862)"/><path class="e" d="M122.066,377.893l.352-.214a.424.424,0,0,1,.581.143h0a.423.423,0,0,1-.142.581l-.146.087a.423.423,0,0,0-.111.628q.4.5.841,1.047l.451.573a1.187,1.187,0,0,0,1.534.317l1.322-.776a1.671,1.671,0,0,0,.834-1.317,2.922,2.922,0,0,1,3.83-2.222,1.908,1.908,0,0,0,1.729-.055l1.108-.692a1.131,1.131,0,0,0,.426-1.541c-.5-.878-.464-.736-.464-.736-.294-.4-.605-.8-.928-1.191a.424.424,0,0,0-.546-.091l-.352.211a.423.423,0,0,1-.58-.143h0a.424.424,0,0,1,.143-.582l.075-.044a.424.424,0,0,0,.083-.661,8.055,8.055,0,0,0-3.652-2.369,3.669,3.669,0,0,0-.839,0c-2.636.3-5.495,3.321-7.946,6.773,0,0,.713.811,1.851,2.187A.424.424,0,0,0,122.066,377.893Zm7.734-4.182h0a.424.424,0,0,1-.143.582l-.655.4a.424.424,0,0,1-.581-.143h0a.423.423,0,0,1,.142-.581l.655-.4A.424.424,0,0,1,129.8,373.711Zm-3.383,2.047h0a.423.423,0,0,1-.145.582l-.691.418a.423.423,0,0,1-.581-.143h0a.423.423,0,0,1,.143-.582l.691-.416A.424.424,0,0,1,126.418,375.758Z" transform="translate(-104.537 -368.802)"/><path class="f" d="M77.3,368.842a5.137,5.137,0,0,0-1.754.562c-.17.086-.337.181-.506.284a12.935,12.935,0,0,0-2.285,1.831,30.721,30.721,0,0,0-3.4,4.093s-6.329-7.006-7.772-6.778a.662.662,0,0,1,.167-.016l9.216.013Z" transform="translate(-54.223 -368.8)"/><path class="g" d="M324.89,445.849a3.347,3.347,0,0,1-.45-1.659,1.791,1.791,0,0,1,.415-1.327,1.473,1.473,0,0,1,1.071-.4h10.33a3.012,3.012,0,0,1,.308.711,3.119,3.119,0,0,1,.143.948,1.791,1.791,0,0,1-.415,1.327,1.481,1.481,0,0,1-1.071.4h-2.63v10.945a6.565,6.565,0,0,1-.818.143,8.788,8.788,0,0,1-1.1.071,4.967,4.967,0,0,1-.96-.083,1.694,1.694,0,0,1-.7-.3,1.278,1.278,0,0,1-.427-.592,2.917,2.917,0,0,1-.141-.995v-9.193Z" transform="translate(-281.923 -432.646)"/><path class="g" d="M427.276,426.512a2.061,2.061,0,0,1,.605-1.508,2.391,2.391,0,0,1,3.2,0,2.181,2.181,0,0,1,0,3.013,2.391,2.391,0,0,1-3.2,0A2.062,2.062,0,0,1,427.276,426.512Zm4.218,14.6-.77.133a6.512,6.512,0,0,1-1.032.082,5.679,5.679,0,0,1-.937-.07,1.6,1.6,0,0,1-.7-.283,1.352,1.352,0,0,1-.438-.576,2.477,2.477,0,0,1-.154-.954v-9.577l.77-.133a6.344,6.344,0,0,1,1.031-.082,5.539,5.539,0,0,1,.937.07,1.6,1.6,0,0,1,.7.282,1.367,1.367,0,0,1,.438.577,2.5,2.5,0,0,1,.154.954Z" transform="translate(-371 -416.934)"/><path class="g" d="M481.16,464.753a3.348,3.348,0,0,0-1.126.19,2.625,2.625,0,0,0-.924.557,2.7,2.7,0,0,0-.628.912,3.191,3.191,0,0,0-.237,1.28,2.763,2.763,0,0,0,.841,2.2,3.006,3.006,0,0,0,2.049.735,4.058,4.058,0,0,0,1.231-.166,7.549,7.549,0,0,0,.925-.355,2.45,2.45,0,0,1,.711.723,1.767,1.767,0,0,1,.237.937,1.656,1.656,0,0,1-.924,1.5,5.182,5.182,0,0,1-2.559.535,7.859,7.859,0,0,1-2.7-.439,6.082,6.082,0,0,1-2.073-1.231,5.457,5.457,0,0,1-1.339-1.907,6.227,6.227,0,0,1-.474-2.464,6.815,6.815,0,0,1,.511-2.739,5.283,5.283,0,0,1,1.385-1.932,5.89,5.89,0,0,1,2.027-1.136,7.692,7.692,0,0,1,2.428-.379,4.731,4.731,0,0,1,2.63.616,1.841,1.841,0,0,1,.924,1.587,1.733,1.733,0,0,1-.213.841,2.881,2.881,0,0,1-.5.669,7.861,7.861,0,0,0-.972-.367,4.13,4.13,0,0,0-1.233-.173Z" transform="translate(-411.621 -449.212)"/><path class="g" d="M576,446.8a2.941,2.941,0,0,1-.652,1.705,1.993,1.993,0,0,1-1.551.593,2.519,2.519,0,0,1-1.348-.367,5.276,5.276,0,0,1-1.278-1.245l-2.349-2.938v4.313l-.77.134a6.459,6.459,0,0,1-1.031.083,5.622,5.622,0,0,1-.937-.071,1.585,1.585,0,0,1-.7-.285,1.363,1.363,0,0,1-.439-.58,2.506,2.506,0,0,1-.154-.96V433.457c.174-.048.43-.1.77-.155a6.452,6.452,0,0,1,1.031-.083,5.49,5.49,0,0,1,.937.072,1.6,1.6,0,0,1,.7.284,1.375,1.375,0,0,1,.438.581,2.508,2.508,0,0,1,.154.96v6.254l4.076-4.164a3.285,3.285,0,0,1,1.98.545,1.639,1.639,0,0,1,.746,1.375,1.772,1.772,0,0,1-.118.652,2.383,2.383,0,0,1-.368.6,5.445,5.445,0,0,1-.64.652c-.26.229-.565.494-.912.794l-1.375,1.185Z" transform="translate(-490.118 -424.638)"/><path class="g" d="M675.1,443a2.855,2.855,0,0,1,.3.7,3.192,3.192,0,0,1,.134.913,1.817,1.817,0,0,1-.391,1.315,1.426,1.426,0,0,1-1.055.391h-4.979v2.677h5.19a2.316,2.316,0,0,1,.319.687,3.066,3.066,0,0,1,.134.9,1.776,1.776,0,0,1-.391,1.292,1.428,1.428,0,0,1-1.055.391h-4.144v5a6.579,6.579,0,0,1-.818.143,8.816,8.816,0,0,1-1.1.071,4.972,4.972,0,0,1-.96-.083,1.693,1.693,0,0,1-.7-.3,1.268,1.268,0,0,1-.427-.592,2.912,2.912,0,0,1-.142-.995V445.2a2.046,2.046,0,0,1,2.2-2.2Z" transform="translate(-576.932 -433.113)"/><path class="g" d="M754.546,426.512a2.061,2.061,0,0,1,.6-1.508,2.145,2.145,0,0,1,1.6-.613,2.122,2.122,0,1,1,0,4.239,2.133,2.133,0,0,1-1.6-.613A2.061,2.061,0,0,1,754.546,426.512Zm4.218,14.6-.77.133a6.5,6.5,0,0,1-1.031.082,5.657,5.657,0,0,1-.937-.07,1.6,1.6,0,0,1-.7-.283,1.363,1.363,0,0,1-.438-.576,2.478,2.478,0,0,1-.154-.954v-9.577l.77-.133a6.35,6.35,0,0,1,1.031-.082,5.517,5.517,0,0,1,.937.07,1.6,1.6,0,0,1,.7.282,1.367,1.367,0,0,1,.438.577,2.5,2.5,0,0,1,.154.954Z" transform="translate(-654.487 -416.934)"/><path class="g" d="M812.455,466.14a1.31,1.31,0,0,0-.415-1.079,1.709,1.709,0,0,0-1.124-.343,3.749,3.749,0,0,0-.937.118,2.378,2.378,0,0,0-.795.356v8.221a5.651,5.651,0,0,1-.746.142,7.713,7.713,0,0,1-1.054.071,5.647,5.647,0,0,1-.937-.071,1.6,1.6,0,0,1-.7-.287,1.36,1.36,0,0,1-.438-.58,2.5,2.5,0,0,1-.155-.96v-7.108a1.833,1.833,0,0,1,.268-1.043,2.866,2.866,0,0,1,.747-.734,6.751,6.751,0,0,1,2.025-.925,9.687,9.687,0,0,1,2.713-.355,6.394,6.394,0,0,1,4.123,1.173,3.957,3.957,0,0,1,1.444,3.257v7.417a5.743,5.743,0,0,1-.745.142,7.712,7.712,0,0,1-1.055.071,5.621,5.621,0,0,1-.937-.071,1.584,1.584,0,0,1-.7-.285,1.363,1.363,0,0,1-.439-.58,2.508,2.508,0,0,1-.154-.96Z" transform="translate(-698.338 -449.199)"/><path class="g" d="M904.639,443.127a7.082,7.082,0,0,1,.474-2.709,5.177,5.177,0,0,1,1.313-1.91,5.4,5.4,0,0,1,1.966-1.126,7.778,7.778,0,0,1,2.428-.367,5.019,5.019,0,0,1,.925.083,3.641,3.641,0,0,1,.734.2v-3.842a6.459,6.459,0,0,1,.759-.155,6.812,6.812,0,0,1,1.071-.083,5.5,5.5,0,0,1,.937.072,1.6,1.6,0,0,1,.7.284,1.293,1.293,0,0,1,.427.581,2.732,2.732,0,0,1,.141.96v11.231a2.023,2.023,0,0,1-1.041,1.776,7.227,7.227,0,0,1-1.778.794,9.26,9.26,0,0,1-5.271-.083,5.585,5.585,0,0,1-2.061-1.233,5.273,5.273,0,0,1-1.28-1.93A6.982,6.982,0,0,1,904.639,443.127Zm6.729-2.961a2.565,2.565,0,0,0-1.966.734,3.155,3.155,0,0,0-.688,2.227,3.316,3.316,0,0,0,.64,2.215,2.317,2.317,0,0,0,1.849.747,2.154,2.154,0,0,0,.77-.134,1.711,1.711,0,0,0,.535-.3v-5.21A2.163,2.163,0,0,0,911.368,440.166Z" transform="translate(-784.504 -424.638)"/></g></svg>